REM DIRINDEX 1\2\6,1\2\7,1\2\8,1\2\9,1\3\10,1\3\11,1\4\12,1\4\13,1\4\14,1\5\15,1\5\16,1\5\17
REM DIRNAME cjc020,folder01,folder02,folder03,folder04,folder05,folder06,folder07,folder08,folder09,folder10,folder11,folder12,folder13,folder14,folder15,folder16
TITLE ""
FILE "1900_3_074 sec13_1218_1234.mp3" MP3
  TRACK 01 AUDIO
    TITLE "0:"
    INDEX 01 00:00:00
  TRACK 02 AUDIO
    TITLE "17:cjc020_8415"
    INDEX 01 00:00:11
  TRACK 03 AUDIO
    TITLE "0:"
    INDEX 01 00:01:50
  TRACK 04 AUDIO
    TITLE "16:cjc020_8416"
    INDEX 01 00:01:58
  TRACK 05 AUDIO
    TITLE "0:"
    INDEX 01 00:02:59
  TRACK 06 AUDIO
    TITLE "17:cjc020_8417"
    INDEX 01 00:03:43
  TRACK 07 AUDIO
    TITLE "0:"
    INDEX 01 00:04:54
  TRACK 08 AUDIO
    TITLE "16:cjc020_8418"
    INDEX 01 00:04:56
  TRACK 09 AUDIO
    TITLE "0:"
    INDEX 01 00:05:65
  TRACK 10 AUDIO
    TITLE "17:cjc020_8419"
    INDEX 01 00:06:49
  TRACK 11 AUDIO
    TITLE "0:"
    INDEX 01 00:07:41
  TRACK 12 AUDIO
    TITLE "16:cjc020_8420"
    INDEX 01 00:07:47
  TRACK 13 AUDIO
    TITLE "0:"
    INDEX 01 00:08:50
  TRACK 14 AUDIO
    TITLE "17:cjc020_8421"
    INDEX 01 00:09:34
  TRACK 15 AUDIO
    TITLE "0:"
    INDEX 01 00:10:65
  TRACK 16 AUDIO
    TITLE "16:cjc020_8422"
    INDEX 01 00:10:70
  TRACK 17 AUDIO
    TITLE "0:"
    INDEX 01 00:11:58
  TRACK 18 AUDIO
    TITLE "17:cjc020_8423"
    INDEX 01 00:12:46
  TRACK 19 AUDIO
    TITLE "0:"
    INDEX 01 00:13:57
  TRACK 20 AUDIO
    TITLE "16:cjc020_8424"
    INDEX 01 00:13:61
  TRACK 21 AUDIO
    TITLE "0:"
    INDEX 01 00:14:62
  TRACK 22 AUDIO
    TITLE "17:cjc020_8425"
    INDEX 01 00:15:48
  TRACK 23 AUDIO
    TITLE "0:"
    INDEX 01 00:16:67
  TRACK 24 AUDIO
    TITLE "16:cjc020_8426"
    INDEX 01 00:16:71
  TRACK 25 AUDIO
    TITLE "0:"
    INDEX 01 00:18:07
  TRACK 26 AUDIO
    TITLE "17:cjc020_8427"
    INDEX 01 00:18:70
  TRACK 27 AUDIO
    TITLE "0:"
    INDEX 01 00:20:00
  TRACK 28 AUDIO
    TITLE "16:cjc020_8428"
    INDEX 01 00:20:04
  TRACK 29 AUDIO
    TITLE "0:"
    INDEX 01 00:21:25
  TRACK 30 AUDIO
    TITLE "17:cjc020_8429"
    INDEX 01 00:22:05
  TRACK 31 AUDIO
    TITLE "0:"
    INDEX 01 00:24:22
  TRACK 32 AUDIO
    TITLE "16:cjc020_8430"
    INDEX 01 00:24:25
  TRACK 33 AUDIO
    TITLE "0:"
    INDEX 01 00:25:33
  TRACK 34 AUDIO
    TITLE "17:cjc020_8431"
    INDEX 01 00:26:17
  TRACK 35 AUDIO
    TITLE "0:"
    INDEX 01 00:27:34
  TRACK 36 AUDIO
    TITLE "16:cjc020_8432"
    INDEX 01 00:27:39
  TRACK 37 AUDIO
    TITLE "0:"
    INDEX 01 00:28:62
  TRACK 38 AUDIO
    TITLE "17:cjc020_8433"
    INDEX 01 00:29:42
  TRACK 39 AUDIO
    TITLE "0:"
    INDEX 01 00:30:69
  TRACK 40 AUDIO
    TITLE "16:cjc020_8434"
    INDEX 01 00:30:73
  TRACK 41 AUDIO
    TITLE "0:"
    INDEX 01 00:32:13
  TRACK 42 AUDIO
    TITLE "17:cjc020_8435"
    INDEX 01 00:32:72
  TRACK 43 AUDIO
    TITLE "0:"
    INDEX 01 00:34:42
  TRACK 44 AUDIO
    TITLE "16:cjc020_8436"
    INDEX 01 00:34:45
  TRACK 45 AUDIO
    TITLE "0:"
    INDEX 01 00:35:63
  TRACK 46 AUDIO
    TITLE "17:cjc020_8437"
    INDEX 01 00:36:46
  TRACK 47 AUDIO
    TITLE "0:"
    INDEX 01 00:37:61
  TRACK 48 AUDIO
    TITLE "16:cjc020_8438"
    INDEX 01 00:37:69
  TRACK 49 AUDIO
    TITLE "0:"
    INDEX 01 00:39:13
  TRACK 50 AUDIO
    TITLE "17:cjc020_8439"
    INDEX 01 00:39:72
  TRACK 51 AUDIO
    TITLE "0:"
    INDEX 01 00:40:70
  TRACK 52 AUDIO
    TITLE "16:cjc020_8440"
    INDEX 01 00:41:04
  TRACK 53 AUDIO
    TITLE "0:"
    INDEX 01 00:42:18
  TRACK 54 AUDIO
    TITLE "17:cjc020_8441"
    INDEX 01 00:43:01
  TRACK 55 AUDIO
    TITLE "0:"
    INDEX 01 00:44:07
  TRACK 56 AUDIO
    TITLE "16:cjc020_8442"
    INDEX 01 00:44:14
  TRACK 57 AUDIO
    TITLE "0:"
    INDEX 01 00:45:28
  TRACK 58 AUDIO
    TITLE "17:cjc020_8443"
    INDEX 01 00:46:09
  TRACK 59 AUDIO
    TITLE "0:"
    INDEX 01 00:47:05
  TRACK 60 AUDIO
    TITLE "16:cjc020_8444"
    INDEX 01 00:47:11
  TRACK 61 AUDIO
    TITLE "0:"
    INDEX 01 00:48:14
  TRACK 62 AUDIO
    TITLE "17:cjc020_8445"
    INDEX 01 00:48:73
  TRACK 63 AUDIO
    TITLE "0:"
    INDEX 01 00:50:41
  TRACK 64 AUDIO
    TITLE "16:cjc020_8446"
    INDEX 01 00:50:46
  TRACK 65 AUDIO
    TITLE "0:"
    INDEX 01 00:51:56
  TRACK 66 AUDIO
    TITLE "17:cjc020_8447"
    INDEX 01 00:52:39
  TRACK 67 AUDIO
    TITLE "0:"
    INDEX 01 00:53:64
  TRACK 68 AUDIO
    TITLE "16:cjc020_8448"
    INDEX 01 00:53:70
  TRACK 69 AUDIO
    TITLE "0:"
    INDEX 01 00:54:70
